<svg width="21" height="21" viewBox="0 0 21 21" fill="none" xmlns="http://www.w3.org/2000/svg">
<path d="M8.313 14.404L7.5 17.25L6.687 14.404C6.47687 13.6689 6.0829 12.9994 5.54226 12.4587C5.00162 11.9181 4.33214 11.5241 3.597 11.314L0.75 10.5L3.596 9.687C4.33114 9.47687 5.00062 9.0829 5.54126 8.54226C6.0819 8.00162 6.47587 7.33214 6.686 6.597L7.5 3.75L8.313 6.596C8.52313 7.33114 8.9171 8.00062 9.45774 8.54126C9.99838 9.0819 10.6679 9.47587 11.403 9.686L14.25 10.5L11.404 11.313C10.6689 11.5231 9.99938 11.9171 9.45874 12.4577C8.9181 12.9984 8.52413 13.6679 8.314 14.403L8.313 14.404ZM16.759 7.215L16.5 8.25L16.241 7.215C16.0927 6.62159 15.786 6.07962 15.3536 5.64703C14.9212 5.21444 14.3794 4.90749 13.786 4.759L12.75 4.5L13.786 4.241C14.3794 4.09251 14.9212 3.78556 15.3536 3.35297C15.786 2.92038 16.0927 2.37841 16.241 1.785L16.5 0.75L16.759 1.785C16.9073 2.37854 17.2142 2.92059 17.6468 3.35319C18.0794 3.78579 18.6215 4.09267 19.215 4.241L20.25 4.5L19.215 4.759C18.6215 4.90733 18.0794 5.21421 17.6468 5.64681C17.2142 6.07941 16.9073 6.62147 16.759 7.215ZM15.394 19.067L15 20.25L14.606 19.067C14.4955 18.7356 14.3094 18.4345 14.0625 18.1875C13.8155 17.9406 13.5144 17.7545 13.183 17.644L12 17.25L13.183 16.856C13.5144 16.7455 13.8155 16.5594 14.0625 16.3125C14.3094 16.0655 14.4955 15.7644 14.606 15.433L15 14.25L15.394 15.433C15.5045 15.7644 15.6906 16.0655 15.9375 16.3125C16.1845 16.5594 16.4856 16.7455 16.817 16.856L18 17.25L16.817 17.644C16.4856 17.7545 16.1845 17.9406 15.9375 18.1875C15.6906 18.4345 15.5045 18.7356 15.394 19.067Z" stroke="#5C5C5C" stroke-width="1.5" stroke-linecap="round" stroke-linejoin="round"/>
</svg>
