<svg width="20" height="21" viewBox="0 0 20 21" fill="none" xmlns="http://www.w3.org/2000/svg">
<path d="M13.3762 9V4.5C13.3762 3.50544 12.9811 2.55161 12.2779 1.84835C11.5746 1.14509 10.6208 0.75 9.62621 0.75C8.63164 0.75 7.67782 1.14509 6.97456 1.84835C6.27129 2.55161 5.87621 3.50544 5.87621 4.5V9M17.2322 7.007L18.4952 19.007C18.5652 19.672 18.0452 20.25 17.3762 20.25H1.87621C1.71841 20.2502 1.56235 20.2171 1.41815 20.1531C1.27396 20.089 1.14485 19.9953 1.03923 19.8781C0.933604 19.7608 0.85382 19.6227 0.80506 19.4726C0.7563 19.3226 0.739655 19.1639 0.756206 19.007L2.02021 7.007C2.04936 6.73056 2.17983 6.4747 2.38646 6.28876C2.59308 6.10281 2.86123 5.99995 3.13921 6H16.1132C16.6892 6 17.1722 6.435 17.2322 7.007ZM6.25121 9C6.25121 9.09946 6.2117 9.19484 6.14137 9.26517C6.07104 9.33549 5.97566 9.375 5.87621 9.375C5.77675 9.375 5.68137 9.33549 5.61104 9.26517C5.54071 9.19484 5.50121 9.09946 5.50121 9C5.50121 8.90054 5.54071 8.80516 5.61104 8.73483C5.68137 8.66451 5.77675 8.625 5.87621 8.625C5.97566 8.625 6.07104 8.66451 6.14137 8.73483C6.2117 8.80516 6.25121 8.90054 6.25121 9ZM13.7512 9C13.7512 9.09946 13.7117 9.19484 13.6414 9.26517C13.571 9.33549 13.4757 9.375 13.3762 9.375C13.2767 9.375 13.1814 9.33549 13.111 9.26517C13.0407 9.19484 13.0012 9.09946 13.0012 9C13.0012 8.90054 13.0407 8.80516 13.111 8.73483C13.1814 8.66451 13.2767 8.625 13.3762 8.625C13.4757 8.625 13.571 8.66451 13.6414 8.73483C13.7117 8.80516 13.7512 8.90054 13.7512 9Z" stroke="#5C5C5C" stroke-width="1.5" stroke-linecap="round" stroke-linejoin="round"/>
</svg>
